<svg width="20" height="20" viewBox="0 0 20 20" fill="none" xmlns="http://www.w3.org/2000/svg">
<path d="M10 9.68006e-09C8.4661 -6.74771e-05 6.95272 0.352741 5.57697 1.03113C4.20122 1.70952 2.99998 2.69531 2.06616 3.91222C1.13235 5.12914 0.491002 6.54457 0.191737 8.04901C-0.107528 9.55345 -0.0566884 11.1066 0.340323 12.5882C0.737335 14.0699 1.46988 15.4403 2.48128 16.5936C3.49267 17.7468 4.75582 18.6519 6.17299 19.2389C7.59016 19.8259 9.12336 20.0789 10.654 19.9786C12.1846 19.8782 13.6716 19.427 15 18.66C15.1195 18.5975 15.2251 18.5114 15.3105 18.407C15.3959 18.3027 15.4593 18.1821 15.4969 18.0525C15.5345 17.923 15.5455 17.7872 15.5292 17.6533C15.5129 17.5194 15.4698 17.3902 15.4023 17.2735C15.3348 17.1567 15.2443 17.0548 15.1364 16.9739C15.0285 16.893 14.9054 16.8347 14.7744 16.8026C14.6434 16.7705 14.5073 16.7653 14.3742 16.7872C14.2411 16.8091 14.1138 16.8576 14 16.93C12.4749 17.8105 10.702 18.1632 8.95603 17.9334C7.21009 17.7036 5.58876 16.9041 4.34348 15.659C3.09819 14.4138 2.29855 12.7926 2.06854 11.0467C1.83854 9.30076 2.19103 7.52774 3.07136 6.00257C3.95169 4.47741 5.31065 3.28532 6.93751 2.61119C8.56436 1.93706 10.3682 1.81855 12.0693 2.27404C13.7703 2.72953 15.2736 3.73358 16.3459 5.13046C17.4182 6.52734 17.9996 8.239 18 10V10.75C18 11.2141 17.8156 11.6592 17.4874 11.9874C17.1593 12.3156 16.7141 12.5 16.25 12.5C15.7859 12.5 15.3408 12.3156 15.0126 11.9874C14.6844 11.6592 14.5 11.2141 14.5 10.75V6.5C14.5 6.23478 14.3947 5.98043 14.2071 5.79289C14.0196 5.60536 13.7652 5.5 13.5 5.5C13.2675 5.49483 13.0404 5.57088 12.8579 5.71507C12.6753 5.85926 12.5488 6.06257 12.5 6.29C11.7649 5.78158 10.8938 5.5063 10 5.5C9.24718 5.491 8.50412 5.67102 7.83889 6.0236C7.17365 6.37617 6.60751 6.89001 6.19232 7.51807C5.77712 8.14612 5.52615 8.86831 5.46237 9.6185C5.3986 10.3687 5.52406 11.1229 5.82728 11.812C6.1305 12.5011 6.60177 13.1032 7.19794 13.563C7.79411 14.0228 8.49612 14.3257 9.23967 14.4439C9.98322 14.5621 10.7445 14.4918 11.4539 14.2396C12.1633 13.9873 12.798 13.5611 13.3 13C13.7752 13.6153 14.4302 14.0673 15.1741 14.293C15.9181 14.5188 16.7138 14.5071 17.4508 14.2596C18.1878 14.0121 18.8293 13.5411 19.2862 12.9121C19.7431 12.2831 19.9926 11.5274 20 10.75V10C20 8.68678 19.7414 7.38642 19.2388 6.17317C18.7363 4.95991 17.9997 3.85752 17.0711 2.92893C16.1425 2.00035 15.0401 1.26375 13.8268 0.761205C12.6136 0.258658 11.3132 9.68006e-09 10 9.68006e-09ZM10 12.5C9.50556 12.5 9.02221 12.3534 8.61109 12.0787C8.19996 11.804 7.87953 11.4135 7.69031 10.9567C7.50109 10.4999 7.45159 9.99723 7.54805 9.51227C7.64451 9.02732 7.88261 8.58186 8.23225 8.23223C8.58188 7.8826 9.02733 7.6445 9.51229 7.54804C9.99724 7.45157 10.4999 7.50108 10.9567 7.6903C11.4135 7.87952 11.804 8.19995 12.0787 8.61107C12.3534 9.0222 12.5 9.50555 12.5 10C12.5 10.663 12.2366 11.2989 11.7678 11.7678C11.2989 12.2366 10.6631 12.5 10 12.5Z" fill="#012D48"/>
</svg>
