<svg width="913" height="591" viewBox="0 0 913 591" fill="none" xmlns="http://www.w3.org/2000/svg">
<path d="M179.57 513.045L180.591 509.072L192.25 512.031L191.229 516.005L179.57 513.045Z" fill="#012D48"/>
<path d="M185.527 518.795L186.548 514.821L198.208 517.78L197.186 521.754L185.527 518.795Z" fill="#012D48"/>
<path d="M191.484 524.544L192.506 520.57L204.165 523.53L203.144 527.503L191.484 524.544Z" fill="#012D48"/>
<path d="M197.442 530.294L198.463 526.32L210.037 529.279L209.016 533.253L197.442 530.294Z" fill="#012D48"/>
<path fill-rule="evenodd" clip-rule="evenodd" d="M437.096 154.049L546.37 217.715C574.029 209.26 609.347 211.881 632.581 225.493C660.921 241.98 660.75 268.444 632.155 284.593C625.772 288.144 618.453 290.934 610.709 292.964C605.177 294.316 599.475 295.246 593.603 295.838C570.88 298.036 546.625 294.063 529.179 283.832C507.988 271.488 502.797 253.648 513.349 238.598L498.286 229.805L498.711 220.336L482.882 220.251L483.308 211.289L467.393 211.204L467.819 202.327L451.989 202.242L452.33 193.28L436.5 193.195L436.926 184.318L419.99 184.149L414.798 181.189L409.096 157.769L437.096 154.049ZM590.795 275.885C598.199 280.197 610.198 280.281 617.602 276.054C625.007 271.911 625.092 264.978 617.688 260.666C610.369 256.354 598.369 256.269 590.88 260.497C583.476 264.724 583.39 271.573 590.795 275.885Z" fill="#E76739" fill-opacity="0.37"/>
<path d="M338.63 555.236L195.74 473.223C184.251 466.628 182.974 456.651 192.931 450.986L340.247 366.86C350.119 361.195 367.48 361.871 378.884 368.466L521.86 450.479C533.349 456.989 534.626 466.966 524.668 472.631L377.353 556.757C367.48 562.507 350.119 561.746 338.63 555.236Z" fill="#E76739" fill-opacity="0.37"/>
<path d="M110.805 312.156C92.3378 301.588 92.3378 284.34 110.805 273.686L206.718 218.729C225.186 208.076 255.228 208.076 273.695 218.729L367.651 272.587L342.119 287.13L248.249 233.272C243.824 230.735 236.59 230.735 232.164 233.272L136.252 288.313C131.826 290.85 131.826 294.993 136.252 297.529L230.122 351.387L204.676 366.014L110.805 312.156Z" fill="#012D48"/>
<path d="M163.57 372.44C163.57 358.912 171.825 343.186 182.038 337.352L352.162 239.782C356.757 237.161 360.927 236.992 364.161 238.767L567.306 356.037L370.885 503.069L170.719 387.659C170.095 387.377 169.528 387.039 169.017 386.644C165.613 384.108 163.57 379.204 163.57 372.44Z" fill="#012D48"/>
<path d="M370.885 503.069L170.719 387.659C170.095 387.377 169.528 387.039 169.017 386.644C165.613 384.108 163.57 379.204 163.57 372.44C163.57 366.014 165.442 359.081 168.591 352.909L396.671 483.791L370.885 503.069Z" fill="#67757D"/>
<path d="M365.183 488.695C365.183 475.167 373.438 459.441 383.65 453.607L553.774 355.953C563.987 350.119 572.242 356.376 572.242 369.903C572.242 383.431 563.987 399.158 553.774 404.991L383.65 502.561C373.438 508.395 365.183 502.223 365.183 488.695Z" fill="#012D48"/>
<path d="M405.437 466.882C405.437 464.176 407.139 461.048 409.182 459.864L429.607 448.196C431.649 447.012 433.266 448.196 433.266 450.902C433.266 453.607 431.649 456.736 429.607 457.919L409.182 469.672C407.139 470.771 405.437 469.587 405.437 466.882Z" fill="white"/>
<path d="M562.71 126.063L527.732 145.763L492.073 124.964L492.244 115.917L492.499 116.086V115.494L476.669 115.325L476.755 106.448L461.18 106.363L461.266 97.4009L445.777 97.3163L445.862 88.4386L430.288 88.2695L430.373 79.3918L413.777 79.3073L408.586 76.2635L402.884 52.9279L402.969 43.8811L405.692 52.5051L430.883 49.2077L562.71 126.063Z" fill="#012D48"/>
<path d="M527.902 136.716L492.244 115.917L492.669 106.448L476.755 106.279L477.18 97.4008L461.351 97.3163L461.691 88.3541L445.862 88.2695L446.287 79.3918L430.373 79.2227L430.798 70.3451L413.862 70.2605L408.671 67.2167L402.969 43.8811L430.968 40.1609L562.795 117.016L527.902 136.716Z" fill="#012D48"/>
<path d="M504.158 122.85C507.733 117.777 513.094 113.042 520.328 108.984C525.434 106.109 531.051 103.827 537.094 101.967L562.795 117.016L527.902 136.716L504.158 122.85Z" fill="#012D48"/>
<path d="M403.905 47.7704L402.969 43.8811L407.65 43.2047L519.052 108.139L513.179 111.436L403.905 47.7704Z" fill="#012D48"/>
<path d="M643.474 150.413L647.559 141.705L647.219 154.556L643.474 150.413Z" fill="#D3D0CF"/>
<path fill-rule="evenodd" clip-rule="evenodd" d="M625.687 183.472C597.092 199.621 550.966 199.283 522.711 182.796C508.499 174.51 501.435 163.688 501.52 152.95L501.946 139.337L504.243 141.958C507.562 135.194 513.86 128.938 523.137 123.696C551.647 107.547 597.773 107.885 626.113 124.372C654.453 140.944 654.197 167.323 625.687 183.472ZM584.412 159.46C577.008 163.603 576.922 170.536 584.327 174.848C591.731 179.076 603.73 179.16 611.134 175.017C618.539 170.79 618.624 163.941 611.22 159.629C603.901 155.317 591.901 155.233 584.412 159.46Z" fill="#67757D"/>
<path fill-rule="evenodd" clip-rule="evenodd" d="M626.028 170.621C597.518 186.77 551.391 186.431 523.051 169.944C494.712 153.373 494.882 126.909 523.477 110.844C552.072 94.6953 598.113 95.0335 626.453 111.521C654.793 128.092 654.623 154.472 626.028 170.621ZM584.837 146.609C577.348 150.751 577.348 157.685 584.667 161.997C592.071 166.224 604.071 166.309 611.475 162.166C618.964 157.938 618.964 151.09 611.645 146.778C604.241 142.466 592.241 142.381 584.837 146.609Z" fill="white"/>
<path d="M592.922 177.638C599.22 178.653 606.198 177.807 611.134 175.017C616.496 171.973 617.943 167.577 615.73 163.772L628.666 153.542C633.148 148.525 637.63 143.508 642.113 138.492C652.495 153.626 647.049 171.466 625.687 183.472C616.241 188.799 605.688 191.842 593.773 193.533L592.922 177.638Z" fill="#012D48"/>
<path fill-rule="evenodd" clip-rule="evenodd" d="M626.028 170.621C619.645 174.256 612.326 177.046 604.581 178.991C599.05 180.344 593.348 181.358 587.475 181.95C564.753 184.149 540.498 180.09 523.051 169.944C494.712 153.373 494.882 126.909 523.477 110.844C552.072 94.6953 598.113 95.0335 626.453 111.521C654.793 128.092 654.623 154.472 626.028 170.621ZM584.837 146.609C577.348 150.751 577.348 157.685 584.667 161.997C592.071 166.224 604.071 166.309 611.475 162.166C618.964 157.938 618.964 151.09 611.645 146.778C604.241 142.466 592.241 142.381 584.837 146.609Z" fill="#67757D"/>
<path d="M639.559 141.367C638.198 133.081 631.985 125.048 621.092 118.707C595.901 103.996 554.88 103.742 529.434 118.031C516.839 125.218 510.456 134.603 510.286 144.072C508.499 133.334 514.796 122.258 529.179 114.142C554.54 99.7682 595.56 100.106 620.751 114.733C633.432 122.174 639.73 131.812 639.559 141.367Z" fill="#012D48" fill-opacity="0.55"/>
<path fill-rule="evenodd" clip-rule="evenodd" d="M634.623 251.619C610.369 237.499 590.88 203.341 591.05 175.44C591.135 166.731 592.922 159.291 596.497 153.288C599.135 148.807 602.709 145.256 607.05 142.804C617.347 136.97 630.283 138.069 643.559 145.848C667.729 159.967 687.218 194.125 687.048 221.942C686.963 237.245 681.261 248.829 671.048 254.663C666.708 257.03 661.857 258.298 656.751 258.298C649.772 258.298 642.198 256.015 634.623 251.619ZM612.156 151.682C609.432 153.203 607.135 155.571 605.347 158.53C602.794 162.842 601.433 168.761 601.347 175.524C601.177 200.128 618.454 230.312 639.815 242.741C649.772 248.575 659.048 249.59 665.942 245.7C672.835 241.811 676.665 233.356 676.75 221.942C676.92 197.254 659.729 167.07 638.283 154.641C632.326 151.174 626.538 149.399 621.432 149.399C618.028 149.399 614.879 150.16 612.156 151.682Z" fill="#012D48"/>
<path d="M607.986 171.973L587.646 176.962L584.667 161.997C592.071 166.224 604.071 166.309 611.475 162.166L607.986 171.973Z" fill="#012D48"/>
<path d="M626.028 170.621C619.645 174.256 612.326 177.046 604.581 178.991C599.05 180.344 593.348 181.358 587.475 181.95C564.753 184.149 540.498 180.09 523.051 169.944L605.858 168.084L626.028 170.621Z" fill="#012D48"/>
<path d="M595.475 181.02C601.319 180.062 607.305 178.512 613.432 176.37V189.052C609.092 190.574 601.858 192.773 595.731 193.533C583.078 195.224 582.993 191.053 595.475 181.02Z" fill="#012D48"/>
<path d="M608.667 177.892C612.496 176.793 616.581 175.44 620.411 173.664C627.787 170.226 626.794 174.848 617.432 187.53C614.936 188.545 612.014 189.56 608.667 190.574V177.892Z" fill="#012D48"/>
<path d="M411.735 399.327L454.798 420.041L437.181 422.916L400.926 399.665L411.735 399.327Z" fill="#012D48"/>
<path d="M444.755 516.85C451.734 513.355 457.351 514.201 461.606 519.387C467.989 527.165 477.18 545.597 477.435 558.026C477.776 570.37 467.563 569.609 461.521 566.65C455.479 563.691 437.777 538.241 436.756 533.253C435.649 528.264 437.947 521.5 439.649 520.148C440.784 519.302 442.486 518.203 444.755 516.85Z" fill="#67757D"/>
<path d="M462.202 517.696C461.691 528.433 460.925 530.716 453.096 531.9C449.521 532.492 446.883 531.731 445.011 530.716C443.053 529.533 441.862 527.419 442.032 525.136L442.457 514.398C456.017 509.438 462.599 510.537 462.202 517.696Z" fill="white"/>
<path d="M482.967 496.22C489.889 492.725 495.506 493.571 499.818 498.757C506.201 506.535 515.392 524.882 515.647 537.311C515.903 549.74 505.775 548.894 499.733 546.02C493.69 543.06 475.989 517.611 474.882 512.623C473.861 507.634 476.159 500.87 477.861 499.518C478.996 498.672 480.698 497.573 482.967 496.22Z" fill="#67757D"/>
<path d="M500.414 497.066C499.818 507.803 499.137 510.002 491.308 511.27C487.733 511.862 485.095 511.101 483.223 510.002C481.265 508.903 480.074 506.704 480.159 504.421L480.669 493.684C494.229 488.78 500.811 489.907 500.414 497.066Z" fill="white"/>
<path d="M387.565 296.515C389.608 263.259 407.735 265.71 441.947 303.87L477.095 338.113L508.754 372.609C514.966 379.373 517.775 388.42 516.583 397.466L503.818 494.275C503.222 499.095 499.052 502.646 494.201 502.561C492.839 502.561 491.251 502.42 489.435 502.139C481.832 500.955 478.315 496.784 478.882 489.625L481.265 399.073L414.799 359.25C394.6 350.739 385.523 329.827 387.565 296.515Z" fill="#D4ECFF"/>
<path d="M455.819 381.909L465.265 378.527C465.521 378.527 481.35 393.746 481.265 399.073L474.116 401.356L456.244 384.108L455.819 381.909Z" fill="#012D48"/>
<path d="M400.926 399.665C374.601 384.728 359.878 374.131 356.757 367.874C354.885 364.239 351.991 360.349 363.566 354.769L416.16 392.055L413.947 404.907L400.926 399.665Z" fill="#012D48"/>
<path d="M349.353 315.792C351.566 282.536 369.722 284.988 403.82 323.148L438.883 357.306L470.542 391.886C476.755 398.65 479.648 407.697 478.457 416.744L465.606 513.553C465.01 518.372 460.84 521.923 455.989 521.839C454.627 521.839 453.067 521.698 451.308 521.416C443.649 520.232 440.103 516.061 440.67 508.903L443.053 418.35L376.587 378.528C356.445 367.142 347.367 346.23 349.353 315.792Z" fill="#D4ECFF"/>
<path d="M428.671 154.556C439.053 163.518 430.713 223.126 452.925 296.684C471.734 359.081 345.524 357.306 346.63 333.885C348.332 296.627 346.658 250.069 341.609 194.21C341.098 178.935 353.807 165.97 379.736 155.317C389.778 151.174 418.288 145.594 428.671 154.556Z" fill="#F7A080"/>
<path d="M382.969 156.332C393.693 153.626 404.075 157.769 406.118 165.632C408.16 173.411 401.097 182.035 390.374 184.825C379.565 187.53 369.268 183.388 367.225 175.524C365.183 167.661 372.246 159.122 382.969 156.332Z" fill="#FFC2B0"/>
<path fill-rule="evenodd" clip-rule="evenodd" d="M365.438 176.032C364.246 171.635 365.523 166.985 368.842 162.842C372.076 158.953 376.927 155.994 382.544 154.556C394.203 151.597 405.607 156.332 407.905 165.125C409.011 169.521 407.82 174.172 404.416 178.315C401.182 182.204 396.416 185.163 390.799 186.6C388.416 187.192 386.033 187.446 383.735 187.446C374.799 187.446 367.225 183.049 365.438 176.032ZM383.395 158.107C378.629 159.376 374.459 161.912 371.736 165.209C369.183 168.338 368.161 171.889 369.012 175.102C370.8 181.95 380.161 185.501 389.863 182.965C394.714 181.781 398.799 179.245 401.522 175.947C404.161 172.819 405.097 169.268 404.331 166.055C402.884 160.728 396.842 157.346 389.608 157.346C387.65 157.346 385.523 157.6 383.395 158.107Z" fill="white"/>
<path d="M395.31 153.542C395.083 154.556 395.196 159.15 395.65 167.323C395.905 171.212 382.289 174.764 378.799 171.297C375.31 167.83 376.672 164.195 375.821 151.09C375.31 142.353 381.806 143.17 395.31 153.542Z" fill="#FFC2B0"/>
<path d="M395.395 156.839L395.65 167.915C384.7 164.815 378.09 159.206 375.821 151.09L395.395 156.839Z" fill="#EA9C92"/>
<path d="M401.948 98.8382C417.947 102.981 427.564 119.215 423.394 135.11C419.309 151.005 402.969 160.559 386.884 156.501C370.885 152.358 361.268 136.124 365.438 120.229C369.523 104.249 385.863 94.6953 401.948 98.8382Z" fill="#FFC2B0"/>
<path d="M390.459 121.582L424.33 126.401C426.032 132.771 423.082 135.927 415.479 135.871C407.82 135.814 398.515 133.447 387.565 128.769L390.459 121.582Z" fill="#EA9C92"/>
<path d="M418.884 129.783C409.295 125.725 400.302 124.541 391.905 126.232C388.927 126.824 386.203 128.346 384.246 130.713C383.65 131.474 382.884 132.151 381.948 132.404C379.736 132.912 376.076 123.696 371.736 123.442C367.395 123.273 364.502 126.317 368.076 131.982C371.565 137.646 370.374 143.988 368.757 144.918C367.14 145.763 349.779 132.573 365.098 102.389C380.416 72.2052 419.394 88.4386 425.437 94.6107C429.692 98.2745 433.55 98.4718 437.011 95.2026C440.869 124.062 434.826 135.589 418.884 129.783Z" fill="#012D48"/>
<path d="M363.395 255.424V277.998C363.395 280.619 364.502 283.071 366.459 284.847L413.267 327.206L407.99 335.323L346.119 290.765C343.226 288.736 341.353 285.523 341.013 281.972L336.843 242.487L363.395 255.424Z" fill="#FFC2B0"/>
<path d="M363.395 263.287C354.261 266.218 341.609 265.09 325.439 259.905C328.957 222.703 335.453 197.028 344.928 182.88C366.431 233.554 372.587 260.356 363.395 263.287Z" fill="#F6A080"/>
<path d="M366.034 209.682C369.722 229.411 371.679 243.897 371.906 253.141C371.991 256.946 369.608 260.412 366.034 261.68V209.682Z" fill="#A8411D"/>
<path d="M378.204 356.714L388.501 355.361L455.308 316.976C457.436 315.792 461.18 315.961 463.648 317.398L510.966 344.539L517.264 343.693V349.865C517.264 350.711 516.839 351.472 515.817 352.064L440.074 395.437C437.947 396.706 434.202 396.536 431.734 395.099L380.246 365.591C378.799 364.746 378.118 363.731 378.204 362.801V356.714Z" fill="#67757D"/>
<path d="M428.33 332.448L433.096 329.742H485.265L510.967 344.539L517.264 343.693V349.865C517.264 350.711 516.839 351.472 515.818 352.064L440.075 395.437C438.968 396.114 437.436 396.367 435.819 396.283L428.33 332.448Z" fill="#396CAA"/>
<path d="M514.456 344.031L517.264 343.693V349.865C517.264 350.711 516.839 351.472 515.818 352.064L514.456 352.824V344.031Z" fill="#012D48"/>
<path d="M439.309 395.776C437.351 396.621 434.458 396.452 432.245 395.353V384.869H439.309V395.776Z" fill="#274F89"/>
<path d="M431.734 388.927L380.246 359.419C377.778 357.982 377.438 355.784 379.65 354.6L455.308 311.142C457.436 309.958 461.18 310.127 463.648 311.48L515.222 341.072C517.69 342.509 517.945 344.623 515.817 345.891L440.075 389.265C437.947 390.533 434.202 390.364 431.734 388.927Z" fill="white"/>
<path d="M434.458 382.417L406.799 366.944C404.756 365.761 404.586 363.985 406.288 362.97L469.265 326.868C471.053 325.853 474.116 326.022 476.244 327.206L503.818 342.594C505.86 343.778 506.116 345.553 504.328 346.568L441.351 382.67C439.649 383.685 436.5 383.6 434.458 382.417Z" fill="#D4ECFF"/>
<path d="M460.755 310.127L461.521 315.285C462.202 319.681 462.031 324.162 461.18 328.559L460.244 333.124C459.734 335.746 457.691 337.775 455.053 338.197C453.01 338.536 451.138 337.183 450.883 335.069L449.606 323.993C447.734 326.473 446.316 327.713 445.351 327.713C443.989 327.713 446.968 316.637 450.032 310.381C452.131 306.153 455.705 306.069 460.755 310.127Z" fill="#FFC2B0"/>
<path d="M459.734 211.965L465.351 243.079C465.634 244.939 465.719 246.828 465.606 248.744L460.755 310.127L450.032 310.381L446.543 255.677C446.287 251.45 445.096 247.391 443.223 243.587L435.053 227.607L459.734 211.965Z" fill="#FFC2B0"/>
<path d="M439.138 391.464C438.287 390.956 437.777 389.857 437.777 388.251L437.692 329.151C437.692 326.276 439.394 322.979 441.521 321.795L517.179 278.252C518.2 277.66 519.137 277.66 519.817 278.083L523.392 280.197L519.562 285.185L519.647 339.466C519.647 342.256 517.945 345.553 515.732 346.821L449.01 385.207L442.713 393.408L439.138 391.464Z" fill="#67757D"/>
<path d="M438.713 325.092C439.394 323.655 440.415 322.471 441.521 321.795L517.179 278.252C518.2 277.66 519.137 277.66 519.817 278.083L523.392 280.197L519.562 285.185L519.647 314.693L493.605 359.588L488.839 362.294L438.713 325.092Z" fill="#396CAA"/>
<path d="M515.818 279.013L517.179 278.252C518.2 277.66 519.137 277.66 519.817 278.083L523.392 280.197L521.69 282.395L515.818 279.013Z" fill="#012D48"/>
<path d="M448.67 326.699L445.096 332.871L437.692 328.559C437.862 326.191 439.138 323.655 440.84 322.302L448.67 326.699Z" fill="#274F89"/>
<path d="M445.181 323.824L520.754 280.366C522.966 279.097 524.668 280.45 524.668 283.24L524.753 342.34C524.753 345.215 522.966 348.512 520.839 349.781L445.266 393.239C443.053 394.507 441.351 393.155 441.351 390.364L441.266 331.18C441.266 328.39 442.968 325.092 445.181 323.824Z" fill="#012D48"/>
<path d="M413.267 327.206C415.82 329.292 418.43 330.391 421.096 330.503C425.096 330.673 430.288 335.492 429.351 336.506C428.557 337.408 426.685 336.732 423.735 334.477L431.564 342.509C433.522 344.539 433.351 347.921 430.968 349.443C430.855 349.499 430.77 349.527 430.713 349.527C428.33 350.964 425.352 350.795 422.969 349.358L415.479 344.792C412.756 343.101 410.543 340.734 409.182 337.859L407.99 335.323L413.267 327.206Z" fill="#FFC2B0"/>
<path d="M427.905 154.387C447.082 175.13 460.528 195.027 468.244 214.079C461.719 225.803 450.401 233.976 434.287 238.598C418.231 243.22 416.103 215.15 427.905 154.387Z" fill="#F6A080"/>
<path d="M439.734 236.738L435.053 192.012L446.032 233.948C444.103 234.963 442.004 235.893 439.734 236.738Z" fill="#A8411D"/>
<path d="M406.288 148.13L414.033 146.017C411.593 149.85 408.558 152.273 404.926 153.288C401.352 154.246 399.281 153.232 398.714 150.244L406.288 148.13Z" fill="white"/>
<path fill-rule="evenodd" clip-rule="evenodd" d="M553.093 36.3562C565.093 36.3562 574.795 45.9103 574.795 57.8318C574.795 69.7532 565.093 79.3918 553.093 79.3918C541.094 79.3918 531.477 69.7532 531.477 57.8318C531.477 45.9103 541.094 36.3562 553.093 36.3562ZM536.157 57.8318C536.157 67.1322 543.732 74.6571 553.093 74.6571C562.455 74.6571 570.029 67.1322 570.029 57.8318C570.029 48.5313 562.455 41.0064 553.093 41.0064C543.732 41.0064 536.157 48.5313 536.157 57.8318Z" fill="#E76739"/>
<path fill-rule="evenodd" clip-rule="evenodd" d="M115.146 203.933C123.656 203.933 130.465 210.782 130.465 219.236C130.465 227.607 123.656 234.455 115.146 234.455C106.635 234.455 99.7419 227.607 99.7419 219.236C99.7419 210.782 106.635 203.933 115.146 203.933ZM104.508 219.236C104.508 225.07 109.274 229.805 115.146 229.805C121.018 229.805 125.784 225.07 125.784 219.236C125.784 213.318 121.018 208.668 115.146 208.668C109.274 208.668 104.508 213.318 104.508 219.236Z" fill="#E76739"/>
<path fill-rule="evenodd" clip-rule="evenodd" d="M597.603 499.856L608.071 478.803L629.262 489.118L618.879 510.171L597.603 499.856ZM610.113 485.144L603.901 497.742L616.581 503.999L622.879 491.316L610.113 485.144Z" fill="#012D48"/>
<path fill-rule="evenodd" clip-rule="evenodd" d="M289.78 173.242L300.248 152.189L321.439 162.504L311.056 183.641L289.78 173.242ZM302.29 158.445L296.078 171.043L308.758 177.3L315.056 164.618L302.29 158.445Z" fill="#E76739"/>
<path d="M647.304 381.74L657.091 386.475L652.24 396.198L642.538 391.379L647.304 381.74Z" fill="#012D48"/>
<path d="M265.185 69.2459L323.141 36.018C324.247 35.4262 325.354 35.3416 326.12 35.8489C326.12 35.7926 326.12 35.7644 326.12 35.7644L331.737 38.9773C330.091 39.5973 328.786 40.0764 327.822 40.4146V82.3511C327.822 85.7331 325.694 89.7069 323.141 91.2288L267.738 123.019V127.923L262.036 124.626H262.121C261.1 124.034 260.504 122.766 260.504 120.906V78.1236C260.504 74.7416 262.632 70.7678 265.185 69.2459Z" fill="#F79876"/>
<path d="M266.291 124.203V81.421C266.291 78.0391 268.334 74.0652 270.887 72.5434L328.843 39.3154C331.481 37.8781 333.524 39.4 333.524 42.8665V85.6485C333.524 89.0305 331.481 93.0043 328.843 94.5262L270.887 127.754C268.334 129.191 266.291 127.67 266.291 124.203Z" fill="#E76739"/>
<path d="M313.269 72.9661C315.482 71.7824 317.184 72.797 317.184 75.2489C317.184 77.7009 315.482 80.7446 313.269 82.0129C311.141 83.1966 309.354 82.182 309.354 79.73C309.354 77.2781 311.141 74.2343 313.269 72.9661Z" fill="white"/>
<path d="M301.439 79.8146C303.567 78.5463 305.354 79.5609 305.354 82.0129C305.354 84.5494 303.567 87.5086 301.439 88.7768C299.312 90.0451 297.525 89.0305 297.525 86.494C297.525 84.0421 299.312 80.9983 301.439 79.8146Z" fill="white"/>
<path d="M289.61 86.5785C291.737 85.3949 293.525 86.3249 293.525 88.8614C293.525 91.3133 291.737 94.3571 289.61 95.5408C287.397 96.809 285.695 95.7944 285.695 93.3425C285.695 90.806 287.397 87.8468 289.61 86.5785Z" fill="white"/>
<path d="M665.772 433.485L722.621 400.933C723.813 400.257 724.749 400.257 725.6 400.679C725.6 400.679 725.6 400.651 725.6 400.595L731.132 403.808C729.486 404.371 728.181 404.822 727.217 405.161V446.336C727.217 449.718 725.174 453.523 722.621 455.045L668.325 486.159V490.978L662.708 487.85H662.793C661.857 487.258 661.261 485.99 661.261 484.214V442.193C661.261 438.811 663.303 434.922 665.772 433.485Z" fill="#F79876"/>
<path d="M666.878 487.427V445.406C666.878 442.024 668.92 438.135 671.388 436.697L728.238 404.146C730.791 402.624 732.834 404.23 732.834 407.528V449.549C732.834 452.931 730.791 456.82 728.238 458.257L671.388 490.809C668.92 492.246 666.878 490.724 666.878 487.427Z" fill="#E76739"/>
<path d="M713.005 437.12C715.132 435.936 716.834 436.951 716.834 439.318C716.834 441.77 715.132 444.73 713.005 445.998C710.877 447.182 709.175 446.167 709.175 443.715C709.175 441.348 710.877 438.388 713.005 437.12Z" fill="white"/>
<path d="M701.345 443.8C703.473 442.616 705.175 443.631 705.175 445.998C705.175 448.45 703.473 451.409 701.345 452.593C699.218 453.861 697.516 452.846 697.516 450.394C697.516 448.027 699.218 445.068 701.345 443.8Z" fill="white"/>
<path d="M689.771 450.479C691.899 449.295 693.601 450.225 693.601 452.677C693.601 455.129 691.899 458.088 689.771 459.272C687.643 460.54 685.941 459.526 685.941 457.074C685.941 454.622 687.643 451.663 689.771 450.479Z" fill="white"/>
</svg>
