<svg width="21" height="21" viewBox="0 0 21 21" fill="none" xmlns="http://www.w3.org/2000/svg">
<path d="M19.7135 4.53409L18.2935 3.12409L19.7135 1.71409C19.9018 1.52579 20.0076 1.27039 20.0076 1.00409C20.0076 0.73779 19.9018 0.482395 19.7135 0.294092C19.5252 0.105788 19.2698 0 19.0035 0C18.7372 0 18.4818 0.105788 18.2935 0.294092L7.75351 10.8341C6.71955 10.1519 5.46918 9.87786 4.24468 10.065C3.02018 10.2521 1.90873 10.8871 1.1257 11.8469C0.342668 12.8068 -0.0561973 14.0231 0.0063911 15.2602C0.0689795 16.4974 0.588566 17.6672 1.46447 18.5431C2.34038 19.419 3.51024 19.9386 4.74737 20.0012C5.98451 20.0638 7.20083 19.6649 8.16066 18.8819C9.1205 18.0989 9.7555 16.9874 9.94262 15.7629C10.1298 14.5384 9.85568 13.2881 9.17351 12.2541L14.0535 7.36409L15.4635 8.78409C15.557 8.87677 15.6678 8.9501 15.7896 8.99986C15.9114 9.04963 16.0419 9.07485 16.1735 9.07409C16.3051 9.07485 16.4356 9.04963 16.5574 8.99986C16.6793 8.9501 16.7901 8.87677 16.8835 8.78409C16.9772 8.69113 17.0516 8.58053 17.1024 8.45867C17.1532 8.33681 17.1793 8.2061 17.1793 8.07409C17.1793 7.94208 17.1532 7.81137 17.1024 7.68952C17.0516 7.56766 16.9772 7.45705 16.8835 7.36409L15.4635 6.00409L16.8835 4.58409L18.2935 6.00409C18.387 6.09677 18.4978 6.1701 18.6196 6.21986C18.7414 6.26963 18.8719 6.29485 19.0035 6.29409C19.1351 6.29485 19.2656 6.26963 19.3874 6.21986C19.5093 6.1701 19.6201 6.09677 19.7135 6.00409C19.815 5.91045 19.896 5.7968 19.9514 5.6703C20.0068 5.5438 20.0354 5.40719 20.0354 5.26909C20.0354 5.13099 20.0068 4.99439 19.9514 4.86789C19.896 4.74139 19.815 4.62773 19.7135 4.53409ZM5.00351 18.0041C4.41017 18.0041 3.83015 17.8281 3.3368 17.4985C2.84346 17.1689 2.45894 16.7003 2.23188 16.1521C2.00481 15.604 1.9454 15.0008 2.06116 14.4188C2.17691 13.8369 2.46264 13.3023 2.88219 12.8828C3.30175 12.4632 3.8363 12.1775 4.41824 12.0617C5.00019 11.946 5.60339 12.0054 6.15156 12.2325C6.69974 12.4595 7.16828 12.844 7.49792 13.3374C7.82757 13.8307 8.00351 14.4107 8.00351 15.0041C8.00351 15.7997 7.68744 16.5628 7.12484 17.1254C6.56223 17.688 5.79916 18.0041 5.00351 18.0041Z" fill="#012D48"/>
</svg>
